<svg id="Layer_1" data-name="Layer 1" xmlns="http://www.w3.org/2000/svg" viewBox="0 0 64 64"><defs><style>.cls-1{fill:#a5aaaa;}.cls-2{fill:#00417d;}</style></defs><title>applying-64x64</title><rect class="cls-1" x="19.85" y="8.8" width="19.36" height="2.42"/><path class="cls-2" d="M42.85,17.28H16.22V47.53H42.85Zm-1.22,29H17.46V18.49H41.64Z"/><rect class="cls-2" x="19.85" y="22.12" width="19.36" height="1.21"/><rect class="cls-2" x="19.85" y="25.75" width="19.36" height="1.21"/><rect class="cls-2" x="19.85" y="29.38" width="19.36" height="1.21"/><rect class="cls-2" x="19.85" y="33.01" width="19.36" height="1.21"/><rect class="cls-2" x="19.85" y="36.64" width="19.36" height="1.21"/><rect class="cls-2" x="30.74" y="40.27" width="8.47" height="3.63"/><path class="cls-1" d="M47.27,57.22H6.55v-52h46v43.9l1.21,1.32V.34H5.33V58.43H47.05ZM15,1.54a1.21,1.21,0,1,1-1.21,1.22A1.21,1.21,0,0,1,15,1.54Zm-3.63,0a1.21,1.21,0,1,1-1.21,1.22,1.21,1.21,0,0,1,1.21-1.22Zm-3.63,0A1.21,1.21,0,1,1,6.55,2.76,1.21,1.21,0,0,1,7.75,1.54Z"/><path class="cls-2" d="M50.42,48.08a.45.45,0,0,0-.42.36L47.81,60.77a.43.43,0,0,0,.39.48h0a.53.53,0,0,0,.32-.05l3.06-1.66,1.25,4.15a.49.49,0,0,0,.59.3h0l3.23-.76a.42.42,0,0,0,.34-.48v0l-1.26-4.15,3.6.07a.45.45,0,0,0,.49-.41h0a.39.39,0,0,0-.11-.28l-8.87-9.67A.51.51,0,0,0,50.42,48.08Zm.36,1.43,7.55,8.26-3.2-.06a.45.45,0,0,0-.49.41h0a.38.38,0,0,0,0,.12L56,62.47,53.65,63l-1.3-4.25a.49.49,0,0,0-.59-.3l-.13.05L48.91,60Z"/></svg>