<svg xmlns="http://www.w3.org/2000/svg" width="800" height="470" viewBox="0 0 800 470" preserveAspectRatio="xMidYMid meet"><defs><clipPath id="animationMask_QNkCEFMNjQ"><rect width="800" height="470" x="0" y="0"></rect></clipPath><clipPath id="ZuhUaCZXQX"></clipPath><clipPath id="nq2wrJr6du"><path fill="#ffffff" clip-rule="nonzero" d=" M390.797,210 C349.764,210 316.5,243.264 316.5,284.297 C316.5,325.33000000000004 349.764,358.594 390.797,358.594 C431.83000000000004,358.594 465.094,325.33000000000004 465.094,284.297 C465.094,243.264 431.83000000000004,210 390.797,210"></path></clipPath></defs><g clip-path="url(#animationMask_QNkCEFMNjQ)"><g opacity="1"><g transform="matrix(1.06,0,0,1.06,-14,-86)" opacity="1" style="-webkit-user-select: none;"><g opacity="1" style="-webkit-user-select: none;"><g transform="matrix(1,0,0,1,0,0)" style="-webkit-user-select: none;"><path d=" M276.164,179.073 C276.164,179.073 276.164,238.734 276.164,238.734 C276.164,257.26300000000003 275.806,275.689 278.924,294.027 C282.489,314.986 289.62399999999997,335.178 299.443,354.009 C319.546,392.564 351.245,423.687 390.916,441.683 C430.587,423.687 462.292,392.564 482.39599999999996,354.009 C492.215,335.178 499.411,314.986 502.976,294.027 C506.09499999999997,275.689 505.823,257.26300000000003 505.823,238.734 C505.823,238.734 505.823,179.073 505.823,179.073 C505.823,179.073 390.993,146.249 390.993,146.249 C390.993,146.249 276.164,179.073 276.164,179.073z" style="fill: rgb(66, 133, 244); fill-opacity: 1;"></path></g><g clip-path="url(#nq2wrJr6du)" transform="matrix(1,0,0,1,0,0)" opacity="1" style="-webkit-user-select: none;"><g style="-webkit-user-select: none;"><path d=" M465.319,285.081 C465.319,326.132 432.041,359.41 390.991,359.41 C349.94,359.41 316.66200000000003,326.132 316.66200000000003,285.081 C316.66200000000003,244.03000000000003 349.94,210.752 390.991,210.752 C432.041,210.752 465.319,244.03000000000003 465.319,285.081z" style="fill: rgb(33, 67, 128); fill-opacity: 0.5;"></path><path d=" M361.779,257.976 C361.779,241.63100000000003 375.04,228.36900000000003 391.387,228.36900000000003 C407.731,228.36900000000003 420.995,241.63100000000003 420.995,257.976 C420.995,274.342 407.731,287.58500000000004 391.387,287.58500000000004 C375.04,287.58500000000004 361.779,274.342 361.779,257.976z M391.387,301.09000000000003 C360.726,301.652 334.094,314.244 334.094,329.719 C334.094,329.719 334.094,342.482 334.094,342.482 C349.574,355.54900000000004 369.545,363.439 391.387,363.439 C413.229,363.439 433.2,355.54900000000004 448.68,342.482 C448.68,342.482 448.68,329.719 448.68,329.719 C448.68,314.244 422.047,301.652 391.387,301.09000000000003z" style="fill: rgb(255, 255, 255); fill-opacity: 1;"></path></g></g></g><g transform="matrix(1,0,0,1,-25,0)" style="-webkit-user-select: none;"><path d=" M285.033,463.865 C285.033,466.546 354.972,468.719 413.491,468.719 C472.01,468.719 541.949,466.546 541.949,463.865 C541.949,461.184 472.01,459.011 413.491,459.011 C354.972,459.011 285.033,461.184 285.033,463.865z" style="fill: rgb(232, 232, 232); fill-opacity: 1;"></path></g></g></g></g></svg>